<?xml version="1.0" standalone="no"?><!DOCTYPE svg PUBLIC "-//W3C//DTD SVG 1.1//EN" "http://www.w3.org/Graphics/SVG/1.1/DTD/svg11.dtd"><svg t="1693703019127" class="icon" viewBox="0 0 1024 1024" version="1.1" xmlns="http://www.w3.org/2000/svg" p-id="6660" xmlns:xlink="http://www.w3.org/1999/xlink" width="200" height="200"><path d="M781.84 119.76c8.45 6.81 16.22 14.42 23.2 22.89 93.8 113.81 12.62 335.67-181.34 495.52s-427.23 197.18-521.03 83.36c-3.55-4.31-6.82-8.79-9.87-13.4 51.45 93.32 135.22 169.42 242.85 209.68 239.21 89.46 505.65-31.93 595.11-271.14 72.58-194.06 6.37-406.04-148.92-526.91z" fill="#91D65E" p-id="6661"></path><path d="M180.42 759.84c-27.55-10.31-50.21-26.08-67.35-46.87-2.31-2.81-4.59-5.82-6.79-8.97-1.27-1.82-2.48-3.8-3.69-6.05l-0.29-0.53c-18.5-34.39-27.04-72.51-24.62-110.08C85 474.1 167.34 339.63 292.58 236.41c147.08-121.22 321.77-174.29 434.7-132.05 14.32 5.35 27.45 12.26 39.05 20.54 2.28 1.7 4.77 3.58 7.24 5.5a146.67 146.67 0 0 1 21.08 20.83c42.21 51.21 47.53 128.38 14.99 217.3-33.44 91.38-102.51 183.45-194.5 259.26-147.09 121.23-321.79 174.3-434.71 132.07 0-0.01 0-0.01-0.01-0.02z" fill="#FCBF66" p-id="6662"></path><path d="M722.57 116.97c13.12 4.91 25.14 11.21 35.73 18.73 2.29 1.71 4.57 3.43 6.82 5.18 7.07 5.71 13.51 12.07 19.14 18.91 39.04 47.37 43.56 119.86 12.73 204.11-32.63 89.16-100.25 179.19-190.41 253.5-72.1 59.43-151.51 102.94-229.63 125.83-73.23 21.46-141.35 22.88-191.81 4.01-25.3-9.46-46.05-23.87-61.67-42.82a132.14 132.14 0 0 1-6.14-8.11c-0.96-1.37-1.9-2.92-2.9-4.77l-0.17-0.31c-17.4-32.34-25.4-67.96-23.13-103 7.08-109.65 87.55-240.47 210.02-341.41 72.1-59.42 151.5-102.93 229.62-125.82 73.22-21.48 141.34-22.9 191.8-4.03M732 91.74C617.98 49.1 438.53 98.66 284.01 226.01 151.41 335.3 71.53 473.56 64.24 586.47c-2.63 40.8 6.92 81.49 26.29 117.5 0.06 0.12 0.13 0.24 0.19 0.36 1.37 2.54 2.86 5.02 4.51 7.38 2.34 3.36 4.82 6.64 7.44 9.82 19.07 23.14 43.92 40.04 73.02 50.92 114.03 42.65 293.49-6.93 448.01-134.29 193.95-159.85 275.14-381.71 181.34-495.52-6.98-8.47-14.75-16.08-23.2-22.89-2.53-1.97-5.1-3.91-7.68-5.83-12.73-9.07-26.86-16.46-42.16-22.18z" fill="#F9F8CC" p-id="6663"></path><path d="M467.324908 277.860778a27.23 9.08 60 1 0 15.727021-9.08 27.23 9.08 60 1 0-15.727021 9.08Z" fill="#F9F8DE" p-id="6664"></path><path d="M534.165014 240.903296a27.23 9.08 64.676 1 0 16.414887-7.767696 27.23 9.08 64.676 1 0-16.414887 7.767696Z" fill="#F9F8DE" p-id="6665"></path><path d="M595.974785 254.693486a9.08 27.23 44.219 1 0 37.980556-39.030359 9.08 27.23 44.219 1 0-37.980556 39.030359Z" fill="#F9F8DE" p-id="6666"></path><path d="M420.618991 313.099046a27.23 9.08 54.446 1 0 14.774393-10.559495 27.23 9.08 54.446 1 0-14.774393 10.559495Z" fill="#F9F8DE" p-id="6667"></path><path d="M374.377633 359.623935a27.23 9.08 44.999 1 0 12.840835-12.841284 27.23 9.08 44.999 1 0-12.840835 12.841284Z" fill="#F9F8DE" p-id="6668"></path><path d="M329.451375 412.666761a27.23 9.08 41.186 1 0 11.958461-13.666777 27.23 9.08 41.186 1 0-11.958461 13.666777Z" fill="#F9F8DE" p-id="6669"></path><path d="M289.754141 479.411834a27.23 9.08 25.52 1 0 7.823802-16.388219 27.23 9.08 25.52 1 0-7.823802 16.388219Z" fill="#F9F8DE" p-id="6670"></path><path d="M250.383796 552.412641a9.08 27.23 58.937 1 0 46.650462-28.100285 9.08 27.23 58.937 1 0-46.650462 28.100285Z" fill="#F9F8DE" p-id="6671"></path><path d="M328.16 571.02a9.08 27.23 0 1 0 18.16 0 9.08 27.23 0 1 0-18.16 0Z" fill="#F9F8DE" p-id="6672"></path><path d="M585.720903 375.898853a27.23 9.08 28.587 1 0 8.689426-15.946143 27.23 9.08 28.587 1 0-8.689426 15.946143Z" fill="#F9F8DE" p-id="6673"></path><path d="M621.040732 308.251226a27.23 9.08 23.917 1 0 7.362297-16.600669 27.23 9.08 23.917 1 0-7.362297 16.600669Z" fill="#F9F8DE" p-id="6674"></path><path d="M551.655187 423.513273a27.23 9.08 34.146 1 0 10.193273-15.029397 27.23 9.08 34.146 1 0-10.193273 15.029397Z" fill="#F9F8DE" p-id="6675"></path><path d="M506.296841 470.870085a27.23 9.08 43.591 1 0 12.521425-13.152928 27.23 9.08 43.591 1 0-12.521425 13.152928Z" fill="#F9F8DE" p-id="6676"></path><path d="M454.352047 517.108108a27.23 9.08 47.403 1 0 13.368167-12.291367 27.23 9.08 47.403 1 0-13.368167 12.291367Z" fill="#F9F8DE" p-id="6677"></path><path d="M388.659362 558.406267a27.23 9.08 63.071 1 0 16.190882-8.224411 27.23 9.08 63.071 1 0-16.190882 8.224411Z" fill="#F9F8DE" p-id="6678"></path><path d="M356.049692 514.114712a36.58 158.78 42.994 1 0 216.551077-232.27136 36.58 158.78 42.994 1 0-216.551077 232.27136Z" fill="#FFA11F" p-id="6679"></path><path d="M915.4 289.64c-0.62-0.63-0.74-1.59-0.34-2.38 0.13-0.25 0.24-0.51 0.36-0.76-2.36-4.98-4.8-9.92-7.34-14.82-0.35 1.58-0.76 3.16-1.29 4.7-0.47 1.37-2.19 1.84-3.29 0.89a76.225 76.225 0 0 0-28.62-15.59l-7.59-2.22c-1.04-0.3-1.68-1.36-1.44-2.41a45.53 45.53 0 0 0-0.9-23.87c-0.23-0.74-0.44-1.49-0.62-2.25-0.37-1.54 1.07-2.92 2.59-2.47l19.41 5.67c-3.34-5.19-6.78-10.32-10.33-15.37l-35.28-10.31c-1.08-0.32-2.21 0.3-2.54 1.37 0.88 3.59 1.63 7.23 2.31 10.92l9.65 2.82c0.86 0.25 1.45 1.04 1.48 1.94 0.13 3.88 0.94 7.72 2.08 11.43 1.64 5.34 1.92 11 0.82 16.45a2.073 2.073 0 0 1-2.61 1.58l-7.99-2.33c0.14 4.08 0.16 8.22 0.09 12.38l1.91 0.56c1.46 0.43 1.96 2.22 0.96 3.36-0.93 1.06-1.92 2.07-2.97 3.01l-0.11 0.1c-0.41 9.54-1.35 19.27-2.8 29.16l4.11 1.2c8 2.35 15.02 7.22 20.03 13.89 0.48 0.64 0.98 1.27 1.49 1.88 0.7 0.84 0.62 2.08-0.19 2.83l-20.66 19.1c-0.73 0.68-0.88 1.78-0.35 2.62 2.43 3.83 5.05 7.54 7.86 11.1 0.27 0.34 0.64 0.59 1.06 0.71l46.02 13.45c10.4 3.02 21.5 2.57 31.62-1.29 3.92-1.49 8.02-2.3 12.16-2.45a469 469 0 0 0-3.34-11.65c-0.2 0.02-0.39 0.03-0.59 0.05-0.76 0.08-1.5-0.26-1.93-0.9a66.132 66.132 0 0 0-36.47-26.58l-7.16-2.09c-2.15-0.63-4.24-1.45-6.25-2.45-1.28-0.64-1.51-2.38-0.46-3.36l14.88-13.75c1.16-1.07 2.27-2.19 3.33-3.35 0.78-0.85 2.1-0.87 2.94-0.08a75.998 75.998 0 0 0 17.71 12.45c-2.75-6.85-5.67-13.62-8.75-20.33-0.91-0.84-1.8-1.69-2.66-2.56z m-24.08 44.79l7.16 2.09a54.321 54.321 0 0 1 26.3 16.99c0.98 1.15 0.44 2.96-1.02 3.34a37.814 37.814 0 0 1-20.08-0.28l-40.79-11.92c-1.54-0.45-2-2.41-0.82-3.5l13.58-12.55c0.7-0.65 1.74-0.72 2.54-0.2 4.06 2.64 8.48 4.67 13.13 6.03z m6.87-43.17a47.348 47.348 0 0 1-3.42 3.52l-16.58 15.33c-0.89 0.82-2.29 0.71-3.03-0.24-0.18-0.23-0.37-0.47-0.55-0.71a50.784 50.784 0 0 0-26.2-18.16l-2.52-0.74c-1.56-0.45-2-2.44-0.79-3.52l6.69-5.96c3.13-2.79 5.86-6.01 8.11-9.55 0.5-0.79 1.44-1.17 2.34-0.9l9.32 2.72c9.97 2.9 19.08 8.17 26.56 15.34 0.78 0.77 0.8 2.04 0.07 2.87zM877.66 386.21c-8.63 1.26-17.66-0.21-25.72-4.2l-24.34-12.1c-1.11-0.55-2.43-0.18-2.94 0.85l-3.44 6.92c-0.51 1.02-0.02 2.3 1.1 2.85l24.34 12.1c6.33 3.13 13.16 5.1 20.09 5.8 0.83 0.08 1.56 0.58 1.92 1.31 7.23 14.66 19.5 26.81 34.69 34.32l7.29 3.62c2.19 1.09 4.29 2.36 6.27 3.78 1.27 0.91 1.24 2.7-0.03 3.44l-17.92 10.49c-1.39 0.82-2.75 1.69-4.06 2.62-0.96 0.68-2.37 0.42-3.14-0.55-8.06-10.12-18.41-18.46-30.21-24.32l-53.13-26.41a544.92 544.92 0 0 1-5.08 10.72l17.58 8.74c0.66 0.33 1.13 0.93 1.26 1.62l6.03 32.11c0.29 1.55-1.22 2.72-2.8 2.19-9.06-2.98-18.73-3.23-27.59-0.65l-1.43 0.41-3.94-23.32c-3.14 5.77-6.42 11.54-9.83 17.31l0.93 5.51c0.22 1.32-0.87 2.44-2.27 2.29a34.97 34.97 0 0 1-3.07-0.47c-2.16 3.53-4.36 7.06-6.62 10.59 8.81 2.72 18.16 2.91 26.79 0.39l1.83-0.53c17.74-5.11 37.49 4.71 44.13 21.93l0.69 1.78c4.13 10.82 12.56 19.93 23.39 25.28l82.01 40.77c1.11 0.55 2.43 0.18 2.94-0.85l0.25-0.5c0.54-3.18 1.05-6.37 1.53-9.55l-12.41-6.17c-0.88-0.44-1.38-1.34-1.28-2.25 0.45-3.89 0.18-7.89-0.46-11.83-0.92-5.67-0.35-11.36 1.64-16.56 0.44-1.13 1.83-1.6 3.02-1.01l13.05 6.49c0.34-4.27 0.64-8.55 0.86-12.82l-5.93-2.95c-1.49-0.74-1.74-2.63-0.51-3.56 1.15-0.86 2.36-1.65 3.62-2.35l3.22-1.81c0.27-9.67 0.23-19.32-0.1-28.93-8.02-4.07-14.64-10.36-18.89-17.99-0.41-0.74-0.85-1.47-1.3-2.19-0.62-0.99-0.34-2.21 0.63-2.78l17.23-10.09c-0.81-7.56-1.83-15.08-3.01-22.57l-43.09-21.42c-10.58-5.22-22.45-7.16-33.79-5.5z m5.81 82.72c-9.36 12.1-12.89 27.65-9.74 43.1l-0.04-0.02c-7.76-3.83-13.78-10.34-16.74-18.09l-1.46-3.8c-2.45-6.39-6.41-12.25-11.58-17.09-0.35-0.33-0.59-0.75-0.68-1.2l-6.41-34.12c-0.32-1.69 1.47-2.89 3.1-2.08l16.35 8.13c10.82 5.37 20.18 13.2 27.2 22.73 0.56 0.76 0.54 1.74 0 2.44z m47.69 40.67c-3.15 7.46-4.09 15.73-2.7 23.96 0.13 0.79 0.24 1.58 0.31 2.37 0.15 1.62-1.58 2.67-3.13 1.9l-36.86-18.32c-0.71-0.36-1.19-1.03-1.28-1.77-0.23-2-0.57-4-1.02-5.98-2.42-10.5-0.94-21.18 4.12-30.21 0.71-1.26 2.61-1.36 3.63-0.18 7.72 8.95 17.27 16.35 28.03 21.69l7.73 3.84c1.06 0.52 1.59 1.71 1.17 2.7z m23.72-30.06l2.57 1.28c1.58 0.79 1.76 2.86 0.3 3.68l-8.02 4.5a43.386 43.386 0 0 0-10.08 7.77c-0.65 0.68-1.71 0.85-2.62 0.4l-9.49-4.72c-10.15-5.04-19.03-12.24-25.88-20.99-0.73-0.93-0.56-2.2 0.34-2.87 1.33-1 2.73-1.92 4.18-2.77l19.97-11.7c1.07-0.63 2.54-0.22 3.19 0.89 0.16 0.27 0.32 0.55 0.47 0.82 5.64 10.07 14.43 18.39 25.07 23.71z m-6.83-52.89l-16.35 9.57c-0.84 0.49-1.96 0.34-2.73-0.35a59.701 59.701 0 0 0-13.04-8.82l-7.29-3.62c-10.46-5.16-19.26-13.02-25.36-22.57-0.87-1.36-0.01-3.05 1.6-3.11 7.26-0.29 14.62 1.29 21.3 4.6L947.71 423c1.57 0.77 1.76 2.82 0.34 3.65zM743.78 512.97l-1.01 2.03c0.83-1.09 1.66-2.19 2.47-3.28-0.62 0.22-1.16 0.64-1.46 1.25z" fill="#ACC221" p-id="6680"></path><path d="M892.93 615.57c-0.53-0.95-1.09-1.89-1.66-2.81-0.79-1.27-0.43-2.83 0.81-3.56l31.9-18.68c1.13-0.66 1.56-2.03 0.99-3.25-2.55-5.56-5.4-11.01-8.53-16.34-0.3-0.51-0.76-0.93-1.3-1.2l-60.08-29.86c-13.58-6.72-28.8-9.21-43.34-7.08-11.07 1.62-22.64-0.27-32.98-5.39l-31.2-15.51c-0.76-0.38-1.59-0.41-2.3-0.17l-2.47 3.28-3.4 6.84c-0.65 1.31-0.02 2.95 1.41 3.66l31.2 15.51c8.12 4.02 16.87 6.54 25.76 7.44 1.06 0.11 2 0.74 2.46 1.68 9.27 18.79 25.01 34.38 44.47 44l9.35 4.65c2.81 1.4 5.5 3.03 8.04 4.85 1.62 1.17 1.59 3.46-0.04 4.41l-22.98 13.45a74.375 74.375 0 0 0-5.2 3.36c-1.23 0.87-3.03 0.53-4.02-0.71-10.33-12.98-23.6-23.67-38.74-31.18l-79.65-39.59c-3.37 3.84-6.81 7.67-10.3 11.48 0.28 0.38 0.64 0.71 1.1 0.93l36.75 18.27c0.85 0.42 1.45 1.2 1.62 2.08l7.74 41.18c0.37 1.99-1.56 3.48-3.6 2.81-11.62-3.82-24.01-4.14-35.37-0.84l-1.83 0.52-5.48-32.4c-0.25-1.48-1.71-2.58-3.26-2.44l-10.52 0.91c-1.55 0.13-2.6 1.45-2.35 2.93l5.14 30.35c0.29 1.7-1.12 3.13-2.91 2.94a45.083 45.083 0 0 1-15.25-4.48l-23.41-11.64c-4.05 3.65-8.17 7.26-12.34 10.85l28.98 14.41c13.86 6.93 29.68 8.5 43.94 4.34l2.35-0.68c22.74-6.55 48.07 6.04 56.58 28.12l0.88 2.28c5.3 13.88 16.1 25.55 29.99 32.41l78.78 39.16c5.14-7.48 10.08-15.15 14.81-22.99-0.14-1.28-0.32-2.56-0.52-3.84-1.18-7.27-0.45-14.57 2.11-21.23 0.56-1.45 2.35-2.05 3.87-1.3l7.39 3.67c2.36-4.47 4.64-9 6.86-13.57l-4.01-2c-1.9-0.95-2.23-3.37-0.65-4.56 1.47-1.1 3.02-2.11 4.64-3.02l6.08-3.41c4.11-9.14 7.98-18.44 11.53-27.96 0.13-0.35 0.25-0.71 0.38-1.06l-13.65-6.78c-10.44-5.2-19.05-13.35-24.57-23.24z m-73.76 23.28c-12 15.51-16.53 35.45-12.49 55.27l-0.05-0.02c-9.94-4.91-17.67-13.26-21.47-23.2l-1.88-4.87c-3.14-8.2-8.22-15.7-14.84-21.91-0.45-0.42-0.76-0.96-0.87-1.54l-8.22-43.75c-0.41-2.16 1.89-3.7 3.98-2.66l20.97 10.42c13.87 6.89 25.88 16.92 34.87 29.14 0.72 0.96 0.7 2.22 0 3.12z m41.61-53.69l-9.35-4.65c-13.41-6.62-24.7-16.7-32.51-28.94-1.11-1.74-0.02-3.91 2.05-3.99 9.3-0.37 18.74 1.65 27.32 5.9l53.25 26.47c2.01 1 2.25 3.63 0.43 4.69L881 596.92c-1.08 0.63-2.51 0.43-3.5-0.45a76.595 76.595 0 0 0-16.72-11.31z m19.53 105.83c-4.04 9.56-5.24 20.16-3.46 30.72 0.17 1.01 0.31 2.03 0.4 3.04 0.2 2.07-2.03 3.43-4.02 2.44l-47.26-23.49c-0.92-0.46-1.53-1.32-1.64-2.27-0.3-2.57-0.73-5.13-1.3-7.67-3.11-13.46-1.21-27.15 5.29-38.74 0.91-1.62 3.35-1.74 4.66-0.23 9.89 11.47 22.15 20.96 35.94 27.81l9.91 4.92c1.34 0.67 2.02 2.2 1.48 3.47z m34.11-32.2l-10.28 5.77c-4.82 2.7-9.17 6.05-12.92 9.96-0.83 0.87-2.19 1.09-3.36 0.51l-12.16-6.05c-13.01-6.46-24.4-15.69-33.18-26.91-0.94-1.2-0.71-2.81 0.44-3.68 1.71-1.28 3.5-2.46 5.36-3.55l25.6-15c1.37-0.8 3.25-0.28 4.08 1.14 0.21 0.35 0.41 0.7 0.6 1.05 7.22 12.93 18.5 23.59 32.14 30.41l3.29 1.64c2.03 1.01 2.25 3.67 0.39 4.71zM792.19 832.26c-0.99 0.29-2.11 0.05-2.96-0.65l-15.09-12.34c-9.96-8.17-17.24-19.06-20.75-31.06a68.4 68.4 0 0 0-1.1-3.43c-0.54-1.56 0.23-3.15 1.74-3.63l38.93-12.29c1.38-0.43 2.17-1.81 1.87-3.26-1.38-6.61-3.11-13.18-5.18-19.68-0.2-0.62-0.59-1.18-1.1-1.61l-57.35-46.88c-12.97-10.57-28.74-16.97-44.92-18.25-12.31-0.97-24.31-5.85-34.17-13.89l-29.78-24.35c-0.38-0.31-0.8-0.52-1.24-0.64-2.32 1.9-4.65 3.79-6.98 5.65l-3.03 3.7c-1.02 1.25-0.74 3.17 0.62 4.28l29.78 24.35c7.75 6.32 16.55 11.18 25.91 14.33 1.11 0.37 1.97 1.29 2.23 2.41 5.37 22.5 18.49 43.14 37.08 58.27l8.92 7.29c2.68 2.2 5.18 4.61 7.46 7.19 1.46 1.66 0.86 4.11-1.12 4.74l-28.03 8.85c-2.18 0.69-4.33 1.47-6.43 2.34-1.54 0.64-3.4-0.17-4.16-1.75-7.94-16.5-19.6-31.27-34.05-43.07l-76.25-62.33a707.55 707.55 0 0 1-13.87 9.44c0.16 0.69 0.54 1.34 1.14 1.84l35.08 28.68c0.81 0.66 1.27 1.65 1.23 2.63l-1.77 46.22c-0.09 2.24-2.53 3.37-4.56 2.15-11.57-6.97-24.83-10.34-37.87-9.57l-2.1 0.11 2.05-36.22c0.09-1.66-1.21-3.19-2.91-3.43l-11.54-1.59c-1.7-0.24-3.16 0.92-3.25 2.58l-1.91 33.93c-0.11 1.9-1.97 3.1-3.86 2.45-5.53-1.9-10.73-4.8-15.32-8.57l-24.64-20.14c-5.52 2.81-11.03 5.54-16.54 8.16l30.55 24.98c13.22 10.86 29.87 16.42 46.24 15.45l2.7-0.15c26.08-1.47 50.26 18.29 54.01 44.15l0.39 2.67c2.3 16.24 11.07 31.45 24.34 42.24l53.1 43.41c5.7-2.5 11.35-5.11 16.94-7.84l-40.96-33.48c-0.87-0.71-1.32-1.8-1.21-2.85 0.31-2.83 0.47-5.7 0.48-8.57-0.04-15.25 5.36-29.53 15.19-40.4 1.38-1.52 4.04-1.06 5.07 0.89 7.84 14.77 18.7 28 31.87 38.75l9.45 7.73c1.29 1.06 1.64 2.86 0.75 4.1-6.07 8.44-9.81 18.38-10.96 28.96 7.51-3.89 14.9-7.99 22.19-12.29 0.81-1.6 1.7-3.16 2.71-4.65 0.96-1.43 3.04-1.63 4.49-0.45l0.55 0.45c5.01-3.08 9.96-6.26 14.86-9.54l-1.47-1.2c-1.82-1.49-1.58-4.18 0.42-5.07 1.85-0.83 3.77-1.53 5.74-2.11l12.47-3.68c8.07-5.95 15.96-12.17 23.65-18.65 0.13-0.72 0.29-1.43 0.41-2.16 0.37-2.26-1.95-4.31-4.18-3.65z m-123.91-37.08c-16.72 13.75-26.48 34.1-27 56.43l-0.05-0.04c-9.5-7.72-15.77-18.61-17.42-30.24l-0.83-5.7c-1.37-9.59-5-18.92-10.6-27.23-0.38-0.57-0.58-1.22-0.56-1.88l1.88-49.11c0.09-2.43 2.94-3.52 4.93-1.89l20.01 16.36c13.25 10.81 23.7 24.56 30.39 39.92 0.56 1.24 0.22 2.59-0.75 3.38z m49.04-54.88c-12.81-10.41-22.49-24.03-27.9-39.13-0.77-2.15 0.94-4.21 3.19-3.79 10.11 1.88 19.77 6.38 27.96 13.05l50.83 41.55c1.92 1.57 1.54 4.46-0.68 5.16l-25.58 8.07c-1.32 0.42-2.81-0.15-3.66-1.34a84.509 84.509 0 0 0-15.23-16.28l-8.93-7.29z m48.6 99.71l-12.48 3.68c-5.85 1.73-11.35 4.27-16.35 7.55-1.11 0.73-2.63 0.64-3.74-0.27l-11.61-9.49c-12.42-10.14-22.41-22.87-29.12-37.11-0.71-1.52-0.08-3.21 1.37-3.85 2.15-0.96 4.37-1.79 6.64-2.51l31.24-9.87c1.67-0.53 3.57 0.5 4.12 2.23 0.14 0.43 0.27 0.85 0.39 1.28 4.6 15.69 14.12 29.93 27.14 40.62l3.14 2.57c1.93 1.58 1.52 4.5-0.74 5.17zM559.64 930.14c-1.01 0.2-2.11-0.15-2.89-0.92l-13.89-13.68c-9.16-9.06-15.4-20.57-17.79-32.84-0.23-1.18-0.49-2.35-0.78-3.52-0.39-1.6 0.52-3.12 2.07-3.46l39.89-8.64c1.41-0.31 2.33-1.6 2.16-3.07-0.77-6.71-1.88-13.41-3.34-20.07a3.4 3.4 0 0 0-0.95-1.7l-52.77-51.98c-11.94-11.72-27.05-19.56-43.04-22.32-12.04-2.09-23.4-7.95-32.44-16.7a584.02 584.02 0 0 1-17.26 6.59l5.16 5.09c7.14 7.01 15.45 12.66 24.47 16.66 1.07 0.48 1.84 1.47 2 2.6 3.27 22.91 14.42 44.66 31.54 61.45l8.21 8.09c2.47 2.43 4.73 5.06 6.76 7.85 1.3 1.78 0.48 4.17-1.56 4.61l-28.73 6.22c-2.23 0.49-4.44 1.07-6.61 1.74-1.59 0.49-3.37-0.48-3.98-2.13-6.38-17.17-16.63-32.95-29.93-46.03l-52.59-51.8c-6.41 1.72-12.78 3.31-19.11 4.74l20.1 19.8c0.75 0.73 1.11 1.76 0.98 2.74l-6.03 45.86c-0.29 2.22-2.83 3.12-4.74 1.72-10.88-8-23.77-12.59-36.83-13.03l-2.1-0.08 5.39-35.87c0.25-1.64-0.91-3.29-2.58-3.68l-11.35-2.65c-1.67-0.39-3.23 0.62-3.47 2.27l-5.04 33.61c-0.28 1.88-2.25 2.9-4.07 2.08a49.558 49.558 0 0 1-14.46-9.94l-32.9-32.41c-8.78-0.24-17.35-0.86-25.73-1.82 0.06 0.07 0.11 0.15 0.18 0.21l46.68 45.98c12.16 12.03 28.22 19.11 44.61 19.66l2.7 0.1c26.11 0.94 48.36 22.86 49.7 48.95l0.14 2.7c0.51 10.49 3.7 20.8 9.13 30 13.37 3.39 26.78 6.17 40.2 8.33 0.02-0.23 0.06-0.46 0.08-0.69 1.37-15.19 8.07-28.9 18.86-38.83 1.51-1.39 4.12-0.68 4.97 1.36 6.44 15.44 16.04 29.6 28.15 41.53l2.08 2.05c27.58 1.12 55-0.23 81.94-3.98 0.92-2.86 1.8-5.74 2.58-8.66 0.64-2.28-1.48-4.53-3.77-4.09z m-119.95-48.36c-17.92 12.15-29.52 31.51-32.09 53.69l-0.04-0.04c-8.75-8.57-13.98-19.99-14.55-31.72l-0.29-5.75c-0.48-9.68-3.23-19.3-8.04-28.09-0.33-0.6-0.47-1.27-0.38-1.92l6.41-48.73c0.32-2.41 3.25-3.23 5.09-1.43l18.42 18.14c12.19 11.99 21.33 26.65 26.57 42.55 0.4 1.28-0.06 2.59-1.1 3.3z m53.9-50.12c-11.79-11.55-20.18-26.01-24.16-41.54-0.57-2.21 1.32-4.1 3.52-3.48 9.89 2.81 19.09 8.18 26.63 15.57l46.77 46.07c1.77 1.74 1.12 4.58-1.16 5.07l-26.22 5.67c-1.35 0.29-2.78-0.41-3.52-1.67a84.866 84.866 0 0 0-13.66-17.61l-8.2-8.08z m39.17 103.77l-12.77 2.51c-5.98 1.18-11.7 3.2-16.98 6.01-1.17 0.62-2.68 0.39-3.7-0.62l-10.68-10.52c-11.43-11.25-20.2-24.85-25.57-39.64-0.57-1.58 0.22-3.2 1.72-3.71 2.23-0.75 4.52-1.38 6.84-1.88l32.02-6.94c1.71-0.37 3.51 0.83 3.89 2.6 0.1 0.44 0.19 0.87 0.27 1.31 3.14 16.05 11.3 31.11 23.27 42.95l2.89 2.85c1.8 1.76 1.12 4.63-1.2 5.08z" fill="#ACC221" p-id="6681"></path></svg>